<svg width="15" height="14" viewBox="0 0 15 14" fill="none" xmlns="http://www.w3.org/2000/svg">
<path d="M14.1495 4.74002L10.0039 4.13753L8.15068 0.380486C8.10007 0.27762 8.01679 0.194348 7.91393 0.143732C7.65595 0.0163744 7.34245 0.122506 7.21346 0.380486L5.36025 4.13753L1.21461 4.74002C1.10031 4.75635 0.995816 4.81023 0.91581 4.89187C0.819086 4.99129 0.765787 5.12503 0.767624 5.26373C0.769461 5.40242 0.826284 5.53471 0.925606 5.63152L3.92503 8.55584L3.2164 12.6852C3.19979 12.7812 3.21042 12.88 3.24709 12.9703C3.28376 13.0607 3.345 13.1389 3.42388 13.1962C3.50276 13.2535 3.5961 13.2875 3.69334 13.2944C3.79058 13.3014 3.88781 13.2809 3.97402 13.2354L7.68207 11.2859L11.3901 13.2354C11.4914 13.2893 11.6089 13.3072 11.7216 13.2877C12.0057 13.2387 12.1967 12.9693 12.1477 12.6852L11.4391 8.55584L14.4385 5.63152C14.5202 5.55152 14.5741 5.44702 14.5904 5.33272C14.6345 5.04699 14.4353 4.78248 14.1495 4.74002Z" fill="#E50914"/>
</svg>
